inDegrees=no
num_controls=7
num_derivatives=13
num_iterations=128
num_multipliers=7
num_parameters=0
num_slacks=7
num_states=26
objective=0.469864
objective_accelerations=0.063173
objective_balance=0.002053
objective_effort=0.020149
objective_height=0.374898
objective_ligament=0.009593
solver_duration=1774.719750
status=Solve_Succeeded
success=true
DataType=double
version=3
OpenSimVersion=4.5
endheader
time	/jointset/ground_pelvis/pelvis_tilt/value	/jointset/ground_pelvis/pelvis_tx/value	/jointset/ground_pelvis/pelvis_ty/value	/jointset/hip_l/hip_flexion_l/value	/jointset/hip_l/hip_adduction_l/value	/jointset/hip_l/hip_rotation_l/value	/jointset/back/lumbar_extension/value	/jointset/patellofemoral_l/patellar_flexion_l/value	/jointset/knee_l/knee_flexion_l/value	/jointset/knee_l/knee_adduction_l/value	/jointset/knee_l/knee_rotation_l/value	/jointset/ankle_l/ankle_angle_l/value	/jointset/subtalar_l/subtalar_angle_l/value	/jointset/ground_pelvis/pelvis_tilt/speed	/jointset/ground_pelvis/pelvis_tx/speed	/jointset/ground_pelvis/pelvis_ty/speed	/jointset/hip_l/hip_flexion_l/speed	/jointset/hip_l/hip_adduction_l/speed	/jointset/hip_l/hip_rotation_l/speed	/jointset/back/lumbar_extension/speed	/jointset/patellofemoral_l/patellar_flexion_l/speed	/jointset/knee_l/knee_flexion_l/speed	/jointset/knee_l/knee_adduction_l/speed	/jointset/knee_l/knee_rotation_l/speed	/jointset/ankle_l/ankle_angle_l/speed	/jointset/subtalar_l/subtalar_angle_l/speed	/forceset/tau_hip_flexion_l	/forceset/tau_hip_adduction_l	/forceset/tau_hip_rotation_l	/forceset/tau_knee_flexion_l	/forceset/tau_ankle_angle_l	/forceset/tau_subtalar_angle_l	/forceset/tau_lumbar_extension	lambda_cid13_p0	lambda_cid13_p1	lambda_cid13_p2	lambda_cid13_p3	lambda_cid13_p4	lambda_cid13_p5	lambda_cid14_p0	/jointset/ground_pelvis/pelvis_tilt/accel	/jointset/ground_pelvis/pelvis_tx/accel	/jointset/ground_pelvis/pelvis_ty/accel	/jointset/hip_l/hip_flexion_l/accel	/jointset/hip_l/hip_adduction_l/accel	/jointset/hip_l/hip_rotation_l/accel	/jointset/back/lumbar_extension/accel	/jointset/patellofemoral_l/patellar_flexion_l/accel	/jointset/knee_l/knee_flexion_l/accel	/jointset/knee_l/knee_adduction_l/accel	/jointset/knee_l/knee_rotation_l/accel	/jointset/ankle_l/ankle_angle_l/accel	/jointset/subtalar_l/subtalar_angle_l/accel	gamma_cid13_p0	gamma_cid13_p1	gamma_cid13_p2	gamma_cid13_p3	gamma_cid13_p4	gamma_cid13_p5	gamma_cid14_p0
0.5	-0.4137152174388709	-0.06434735865221981	0.7764045848981025	1.182538935661492	-0.3528061278198199	-0.06497082709313454	-0.4083591120066359	0.712858961144087	0.7128589611440784	-0.05353937945242788	-0.1745262393074873	0.04918046020608395	0.08307793140033502	-1.300299837735732	-0.4007555156146316	-0.4986444279056659	2.871247750878429	0.04309448915311379	0.4323974056751488	-0.2827031055988703	1.343825505400658	1.34382550540067	0.2115253691242364	0.0001801571068754632	-0.1261389762280069	0.00202001275401573	-0.1665255109208605	0.002855185495216537	0.005356113442427251	-0.1434992985898394	0.09275939852822644	0.009157945610752109	0.1508674159654939	5.124003553805678	-4.203204693513295	-0.3776527527592957	-7.740251216595283	-435.8138038313953	-66.4916723311743	-14.66244468543744	0.5283714834111043	0.6916544131969345	-0.3771848578623289	-1.72485885484927	0.105668658622619	-0.3909463071399368	1.598967065829243	-1.074356795537893	-1.074356795537889	-0.4174169491412185	0.0682357941396612	-0.007374998586921908	0.1113025583764923	4.225136876879215e-10	-1.317520631824623e-06	-6.463940777907685e-07	-2.856857159033264e-07	-2.289443985087971e-07	1.956576632537892e-07	-1.577487248398517e-07
0.51	-0.4266891359485511	-0.06831974921722324	0.7714005583046427	1.211159827697464	-0.3523708404091855	-0.06067020400389426	-0.4111072505672391	0.7262412065944618	0.7262412065944478	-0.05144493064988502	-0.1745245192980875	0.04791862996533205	0.08310272896533427	-1.294314344935745	-0.3936724163260915	-0.5020426987679364	2.852529128670882	0.04393972701093472	0.4277122923035002	-0.2669230121269003	1.332414208210523	1.332414208210528	0.2073071784010484	0.0001788020562413203	-0.1262186465819302	0.00291750306763272	-0.1732504174170647	0.003364353171962672	0.004889799227163798	-0.1439733259418802	0.09467154545758377	0.01003636125203599	0.1555473029122481	5.597422457475539	-4.523085297486515	-0.4917171441584341	-8.187984098013358	-439.4555092363164	-66.74685017366225	-14.11496892008473	0.6590438914646072	0.7241027119583454	-0.3034558305047423	-2.005616076477081	0.07079250793679298	-0.5096218588459597	1.567769647101425	-1.205894607449894	-1.205894607450945	-0.4329145032806253	-0.03218179004836445	-0.007057184680467456	0.0759913670460298	1.225690438695164e-08	-1.30275554583012e-06	-7.449031785223046e-07	-2.952080247072738e-07	-1.891504726669738e-07	1.905318651677785e-07	-1.43443794092397e-07
0.52	-0.4395981183875959	-0.07221981578428611	0.766366087476541	1.239581483076807	-0.3519277323882574	-0.05641689764970351	-0.4136975403612782	0.7395030633875943	0.739503063387577	-0.04939444262844726	-0.1745223849662738	0.0466562441948639	0.08313590525330801	-1.287312623608875	-0.38629071602652	-0.5047332748340175	2.831400419552545	0.04465861121175259	0.4229340586651062	-0.2511333522861089	1.319747773952447	1.319747773952445	0.2027332129029394	0.0002630215902705649	-0.1262500821712705	0.00369575734891885	-0.1799753239132665	0.003873520848713881	0.004423485011912571	-0.144447353293919	0.09658369238694306	0.01091477689332542	0.1602271898590035	6.069988813066479	-4.842393008863115	-0.6063572331252183	-8.632967147949564	-443.1094270035883	-67.01393834928453	-13.57120328443922	0.731617188787727	0.7513746154032048	-0.2356458986244506	-2.206876237007627	0.0803979272220034	-0.4095703604890427	1.600880339593528	-1.325384209125969	-1.325384209125969	-0.4885719041254398	0.08535071107231715	0.002271954329678214	0.08745535191031518	-3.117091292172051e-09	-1.149436333734403e-06	-5.442282364643826e-07	-2.639711918409566e-07	-2.032654880298786e-07	2.269303784980866e-07	-1.499689249336331e-07
0.53	-0.4524321378606964	-0.076044701565205	0.7613082642326083	1.267780130638028	-0.3514780385964527	-0.05221165191831867	-0.4161299764475021	0.7526320838827625	0.7526320838827626	-0.04739139606252844	-0.1745188213096883	0.04539373796768113	0.08317628446925802	-1.279329433068788	-0.3786489067081989	-0.5067102795524689	2.80795006506906	0.0452775881211381	0.4180118702329925	-0.2353671208948785	1.305853956453157	1.305853956453161	0.1979129685780743	0.0004118667386134382	-0.1262439096290273	0.004380747879890381	-0.1867716830582619	0.004421623481387355	0.003885962877547767	-0.1447293011806201	0.09812704403085204	0.01174390342424231	0.1648767499184981	6.414521333735316	-5.128558181322953	-0.7140798403410702	-8.921174821791745	-446.8214915902925	-67.20332695720522	-13.03129879059026	0.8559213122108185	0.7761645946245449	-0.1606057343366045	-2.47099567621799	0.0525014806330015	-0.5491374175090111	1.562506148449289	-1.451705135324798	-1.451705135324015	-0.4734615653730371	-0.0260613578373489	0.0008331552705211046	0.05934183978616855	-4.46121424154784e-08	-8.277354780020749e-07	-2.055665883238745e-08	-1.801165243926676e-07	-2.594746047665006e-07	3.118724959950959e-07	-1.723508438215557e-07
0.54	-0.4651814751632765	-0.0797920531520251	0.7562342953463149	1.295732898529976	-0.3510221842539865	-0.04805874693784193	-0.4184051478979011	0.7656161012799426	0.7656161012799521	-0.04543549411361349	-0.1745149117565222	0.04413150211614061	0.08322357777773688	-1.27037618950504	-0.370783877206759	-0.5079624033061626	2.782224485697607	0.04589072134396939	0.4124659084834206	-0.2196804251211887	1.290747154354093	1.290747154354102	0.1933042895049701	0.000332200904851031	-0.126196007042829	0.005078575854685809	-0.1935680422032561	0.004969726114064044	0.003348440743127745	-0.1450112490673192	0.09967039567476259	0.01257302995516348	0.1695263099779934	6.757970373888255	-5.414798875555559	-0.8214878512485464	-9.210646036189688	-450.5524154708471	-67.41557849680233	-12.49558659751539	0.9256277935198681	0.7960186520269691	-0.09066970567288839	-2.661921214601449	0.0792291899111488	-0.5343250239806832	1.584973216085423	-1.567981129081002	-1.56798112908101	-0.4462588537732741	0.03964851465123869	0.01061796312068843	0.09002284067508871	-1.150070846685191e-07	-3.197400378207269e-07	8.604728985836925e-07	-3.804638038560058e-08	-3.622559187676611e-07	4.505224308680306e-07	-2.122764431015573e-07
0.55	-0.477836524664521	-0.08345970235818841	0.7511514201880797	1.323417199262652	-0.3505608581737827	-0.04396024184308679	-0.4205239492327743	0.778443053821838	0.7784430538218462	-0.04352816464720496	-0.1745102346271296	0.04286980653188227	0.08327715643308088	-1.260478239841782	-0.3627154517571349	-0.5084911426711148	2.754276324228992	0.04637267330430648	0.4071162423118805	-0.2041061593279251	1.274458458688045	1.274458458688047	0.1882143148478307	0.0005484766227358321	-0.1261301923445346	0.005640604552710253	-0.2002947722561831	0.005358829737383134	0.002817221185840189	-0.1453100888580187	0.1011888969957253	0.01331775719015497	0.1740623838662904	7.08807444147982	-5.663008391203944	-0.9338624765862406	-9.459715537808417	-454.2630709665585	-67.5782516769163	-11.96443739160132	1.045167902789072	0.816839221039969	-0.01583686513151154	-2.915203951450226	0.03228223043604572	-0.5533248937669643	1.539705639770345	-1.687001275062452	-1.687001275063307	-0.5324473059206469	0.004675742020769967	0.006503340349753171	0.03965851346804178	-1.503168353982668e-07	-2.058655033580171e-08	1.333027219790469e-06	4.232970906459796e-08	-4.035694697722091e-07	5.260594371131268e-07	-2.285294495380169e-07
